<svg xmlns="http://www.w3.org/2000/svg" xmlns:xlink="http://www.w3.org/1999/xlink" viewBox="0 0 986.24 420.19"><defs><linearGradient id="a" x1="568.39" y1="238.26" x2="568.37" y2="-64.78" gradientTransform="matrix(1, 0, 0, -1, -69.78, 301.24)" gradientUnits="userSpaceOnUse"><stop offset="0"/><stop offset="1" stop-color="#00005c"/></linearGradient><linearGradient id="b" x1="83.14" y1="122.01" x2="261.61" y2="122.01" gradientTransform="matrix(1, 0, 0, -1, -69.78, 301.24)" gradientUnits="userSpaceOnUse"><stop offset="0" stop-color="#ffe100"/><stop offset="1" stop-color="#dc2314"/></linearGradient><linearGradient id="c" x1="249.27" y1="121.61" x2="403.02" y2="121.61" xlink:href="#b"/><linearGradient id="d" x1="408.02" y1="106.81" x2="651.62" y2="106.81" xlink:href="#b"/><linearGradient id="e" x1="585.33" y1="117.7" x2="742.15" y2="117.7" xlink:href="#b"/><linearGradient id="f" x1="753.94" y1="111.56" x2="877.87" y2="111.56" xlink:href="#b"/><linearGradient id="g" x1="862.05" y1="109.43" x2="1031.24" y2="109.43" xlink:href="#b"/></defs><path d="M881,.05c-24.71-.31-49.27.86-73.65,4.78-47,7.54-77.41,14.33-125.66,28.53-41.56,12.23-83,27.15-124.46,42l9.33,16.78C611.22,73.36,650.05,63.67,692,53.33,742.88,40.8,795.81,27.2,848.16,36c26.71,4.47,36.19,17.75,30.68,37-.93,3.24-4.19,10.17-5.39,10.93l55.16-1.13c2.61-1.62,12.7-16.41,17.3-25.92,5.23-10.83,5.85-27.25,1.28-34.22C942.36,15.2,931,7.94,917.72,3.73,908,.65,903.52.32,881,.05Z" fill="#ec4b88"/><path d="M515.11,91.89s-8.24,2.21-9.5,3.62l4.65,6.27,4.85-9.89Z" fill="#ec4b88"/><path d="M611.55,107c-7.74,2.32-28.39,8-28.39,8l1.54,12.53c9.3-2.35,16.8-4,24.56-6.4Z" fill="#ec4b88"/><path d="M699.71,170.16s-7.13,5-8.43,6l-8,28.71c9.72-4.31,19.15-11.52,27.11-18.34L711.49,172l-11.78-1.79Z" fill="#ec4b88"/><path d="M675.13,233l-6.55,19.32-.22,10.06,38.89-19.73,1.17-27.49A329,329,0,0,1,675.13,233Z" fill="#ec4b88"/><path d="M467,213.71l-7,4.09,21.38,15.95,25.05-.19-.87-15.15c-12.25.84-38.6-4.7-38.6-4.7Z" fill="#ec4b88"/><path d="M440.68,307.5c-26.31,8.55-53.89,15.1-80.87,21.14-44.81,10.85-89.79,14.1-105,7.59-8.19-3.5-14.81-16.52-14.81-21.79l-45.44,11.42-3,6.56c-3.83,8.48-3.78,10,.6,17.75,4.53,8.06,15.92,13.77,31.12,15.59,22.41,2.69,79.39-2.87,106.38-10.37L451.19,315Z" fill="#ec4b88"/><path d="M180,308l-50.5,12.19c-12.52,12.94-23.64,26.68-31,43.11-13.61,30.5,3.76,50.32,48.69,55.65,26.9,3.2,63.74.26,116.19-9.25,36.14-6.55,117.24-27.23,136-36.25,24.9-12,54.43-23.67,77.31-33,3.43-1.4-4.49-10.61-7-10.1-6.31,1.31-8.74,1.25-54.86,13.73-53.18,14.38-106.8,28.31-161.79,33.81-79.14,7.92-101.88-20.05-69.42-62L180,308Z" fill="#ec4b88"/><path d="M184.27,63C171.74,67.06,164.22,79.25,157,89.54c-5.8,7.7-11.83,15.47-13.78,25.07-4.29,17.24-4.6,35.12-7.1,52.63.48,8.65-1.55,5.74-4-.21-4.76-8.69-7-19.85-.84-28.51,4.06-7.75,5.33-17.17,1.25-25.19-3.7-13-12-27.82-26.88-29.37-7.39-.67-13,4.82-18.47,8.72-9.55,2.21-21.34-5.24-29.4,2.9-10.35,10.64-18.72,24.17-18.83,39.5-2.8,22.65-8.09,45.08-7.42,68.06C27.7,236.53,12.62,268.08,11,301.77,14.7,314,21.07,325.92,29.8,335.14c9.51,4.64,20-.26,29.5-2,10.85-3.71,17.66-14,20.37-24.62,7.07-15.89,8.7-33.56,10.78-50.56,12.32,24.69,27.52,47.84,41.29,71.78,13.77-10.42,31.57-14.82,47.25-19.78,4.58,13.05,18.33,20.33,31,23.37,12.64,1.79,23.28-7.26,29.2-17.62,10.27-15.25,14-33.87,17.73-51.41,7.45-2.29,14.32-6.12,21.79-8.53-.71,22.87-1.17,47.4,10.5,67.75.92,6.1,6.9,14,13.65,10.06C316,321,330.78,309.8,340.11,294c3.2,15.37,17.37,25.92,32.06,29.15,14.39,4.22,31.62-2.91,36.91-17.34,2.17-4.21,3.4-8.75,4.78-13.28,24.4,16.19,49.65,31.31,77.43,40.72,24.35,10.36,47.9,22.76,72.63,32,12.72.92,28.79,4.06,38.5-6.41,6.3-7.23,0-19.52,8-25.56,3.9-2.71-2-6.6-4.87-7.47-4.72-1.88-9.72-5-13.88-7,2.35-2.05,4.18-5.78,6.31-7.28,8.34,10.49,21.64,18.51,35.44,18.31,16-.62,28.26-13.22,37.31-25.09,4.77-5.68,7.2-13.56,4-20.59-3.69-7.31-4.46-15.16-4.09-23.22-1-9.73,1.31-19.05,5.33-27.79,5.81-18,9.36-36.64,15-54.68,1.08-3.8,1.9-8.29,3-11.72,8.16,5.4,18.46,5.65,27.9,4.56.14,44.52-7.56,88.85-5.62,133.35,3,18.13,21.68,33.87,40.5,28.93,17.92-6.18,26.89-25.41,30.68-42.65,3.72-17.07,4.17-35.3,6.32-52.13,1.46,2.95,7.16,3.14,5.37,7.32-1,21,.21,44.78,15.35,60.77,7.94,11.32,19.93,22,34.75,21.12,15.5.28,31.51-.49,46.21-5.58,15.48-6.44,25.43-20.71,38.69-30.42a149.05,149.05,0,0,0,31.67-36.39c12.56-15.39,23.79-35.35,19.5-56.07-3-22.18-1.62-46.29-14.07-65.87C966.16,125,958.11,118.86,952,111c-8.67-9.88-22.26-12.51-34.81-13.6-8.32-.78-16.19,1.89-23.72,4.78-9.23.85-18-4.32-27.37-2.5-14.26.87-28.62,9.09-34.19,22.57-2.49-8.86-3.94-18.3-8.12-26.44C817.26,86.85,804.93,87.33,795,86c-25-1.3-49.92,5.58-74.79,2-10.4-.44-20.36,5.89-25.06,14.66-2.78-11.93-12-25.19-25.56-24.44C657.36,79.56,648.28,89,638,94.61c-15.1,12.1-16.76,32.92-19.17,50.68-4.7,24.17-16.24,46.46-22.42,70.35a81.39,81.39,0,0,1-5.47,13.1c-4.28-27.6,2.16-55.21,5.41-82.53,1.51-10.19-5.12-18.55-11.28-25.78-4.91-5.31-7.19-12.15-10.41-18.32-10.73-14.78-38.11-14.06-45.48,3.68-2.61,5.06-5.47,10-7.93,15.17-6.53-12.67-15.36-25.12-27.56-32.69-5.81-2.8-13-2.45-17.06-8.28-5.68-5.54-13.46-9-21.5-7.88-20.85-2.15-42.61-12.78-63.44-4.43-30.55,11.57-47.7,46.22-43.59,77.93,0,0,.85-4.62-5.72-31.37-2.37-4.86-8.91-6.09-11-11,3.72-14.72-7.44-29.87-21.47-33.66-11.68-6.6-26.16.27-33.62,10.13C264,91.72,246.82,98,235.33,110.89c-8.1,11.53-1.74,26.26-6.51,38.75-3.78,14.22-11.13,27.13-18.8,39.57,2.67-25.84,4.52-52,6.22-77.94-2.54-15.94-10.3-31-20.54-43.31-3-2.94-7.07-5.33-11.43-5Zm329,127c.66,27.5,1.71,55.13,6,82.31-22.81-16.49-46.46-32.15-68.22-49.84,22-10.23,44.23-22.24,60.62-40.5,2.87-4.49.87,6.69,1.63,8Z" fill="url(#a)"/><path d="M173.31,42.3c-12.53,4.07-20,16.26-27.3,26.55-5.81,7.69-11.83,15.46-13.78,25.06-4.29,17.24-4.6,35.13-7.11,52.64.48,8.65-1.54,5.74-4-.22-4.76-8.68-7-19.84-.85-28.5,4.06-7.76,5.34-17.17,1.25-25.19-3.69-13-12-27.82-26.87-29.38-7.4-.66-13,4.83-18.47,8.72-9.55,2.21-21.34-5.23-29.41,2.91C36.46,85.53,28.09,99.06,28,114.38c-2.8,22.66-8.09,45.09-7.42,68.07C16.75,215.84,1.67,247.39,0,281.08c3.75,12.23,10.11,24.15,18.84,33.37,9.52,4.63,20-.26,29.5-2,10.85-3.71,17.66-14,20.38-24.62,7.06-15.89,8.7-33.56,10.78-50.57C91.82,261.92,107,285.08,120.78,309c13.78-10.42,31.57-14.82,47.25-19.78,4.59,13,18.34,20.33,31,23.38,12.64,1.79,23.29-7.27,29.2-17.62,10.28-15.25,14-33.88,17.74-51.41,7.44-2.29,14.31-6.12,21.78-8.53-.71,22.87-1.17,47.39,10.5,67.75.92,6.1,6.91,14,13.66,10.06,13.12-12.59,27.88-23.75,37.22-39.56,3.2,15.37,17.37,25.92,32.06,29.15,14.39,4.21,31.61-2.91,36.9-17.34,2.18-4.22,3.4-8.75,4.79-13.28,24.4,16.18,49.65,31.3,77.43,40.72,24.35,10.36,47.89,22.75,72.63,32,12.72.91,28.79,4.05,38.5-6.41,6.3-7.23,0-19.52,8-25.56,3.89-2.71-2-6.6-4.88-7.47-4.71-1.89-9.72-5-13.87-7,2.34-2.05,4.18-5.78,6.31-7.28,8.33,10.49,21.64,18.51,35.44,18.31,16-.63,28.26-13.22,37.31-25.09,4.77-5.68,7.2-13.57,4-20.6-3.69-7.3-4.47-15.15-4.09-23.21-1-9.73,1.3-19.05,5.32-27.79,5.81-18,9.36-36.65,15-54.68,1.09-3.8,1.9-8.3,3-11.72,8.16,5.39,18.47,5.65,27.91,4.56.13,44.52-7.56,88.85-5.63,133.34,3,18.14,21.68,33.87,40.5,28.94,17.93-6.18,26.9-25.41,30.69-42.65,3.72-17.07,4.16-35.3,6.31-52.13,1.46,3,7.17,3.14,5.38,7.31-1,21,.21,44.78,15.35,60.77,7.93,11.33,19.92,22,34.74,21.12,15.51.29,31.51-.48,46.22-5.57,15.47-6.44,25.43-20.72,38.69-30.42A149.2,149.2,0,0,0,954.85,235c12.57-15.39,23.79-35.36,19.5-56.07-3-22.18-1.61-46.3-14.07-65.87-5.08-8.8-13.13-14.88-19.28-22.79-8.67-9.87-22.27-12.51-34.81-13.59-8.33-.78-16.2,1.89-23.72,4.78-9.23.85-18-4.32-27.38-2.5-14.26.87-28.62,9.08-34.18,22.56-2.49-8.85-3.95-18.3-8.13-26.43-6.47-8.93-18.8-8.44-28.75-9.75-25-1.3-49.92,5.57-74.78,2-10.4-.44-20.37,5.88-25.06,14.65-2.79-11.92-12-25.18-25.57-24.43C646.4,58.87,637.33,68.32,627,73.92c-15.1,12.1-16.76,32.92-19.18,50.67-4.7,24.18-16.23,46.46-22.41,70.36a81.39,81.39,0,0,1-5.47,13.1c-4.29-27.6,2.15-55.21,5.4-82.54,1.52-10.19-5.12-18.55-11.28-25.78-4.9-5.3-7.19-12.15-10.4-18.31-10.73-14.79-38.12-14.06-45.49,3.67-2.61,5.07-5.46,10-7.92,15.17-6.54-12.66-15.37-25.12-27.56-32.68-5.82-2.81-13-2.45-17.07-8.28-5.68-5.54-13.45-9-21.5-7.88-20.84-2.15-42.6-12.78-63.43-4.44-30.56,11.58-47.71,46.23-43.6,77.94.71,14.92,5,30.92,3.41,45.13-1.68-11-1.94-23.79-3.1-35.47-1.32-13.73-2.18-27.76-6-41-2.36-4.86-8.9-6.1-11-11,3.72-14.72-7.45-29.87-21.47-33.66-11.68-6.61-26.16.27-33.63,10.12-12.25,12-29.45,18.32-40.94,31.19-8.09,11.53-1.74,26.25-6.51,38.75-3.77,14.22-11.13,27.13-18.8,39.56,2.68-25.83,4.52-52,6.22-77.93-2.54-16-10.3-31-20.53-43.32-3.05-2.93-7.07-5.32-11.44-5Zm226.91,78.06c0-20,30-20,30,0C430.22,144.31,400.22,140.68,400.22,120.36Zm407,19.62c-2.87,8.87-8.85,18.05-13.84,24.6.06-6.78-.21-13.57.21-20.35C798.29,143.76,803.6,141.48,807.25,140ZM502.31,169.3c.66,27.5,1.72,55.13,6,82.31-22.8-16.49-46.46-32.15-68.22-49.85,22-10.22,44.23-22.23,60.63-40.5C503.56,156.78,501.55,168,502.31,169.3Zm407.91,11.06c0,24.94-39.1,60-50,60-10,0-10-10-10-40,0-30.19,20-50,40-50C909,150.36,910.22,155.42,910.22,180.36Z"/><path d="M173.47,50.2C161.58,57.33,155.72,71,146.59,81c-10.51,14.69-8.42,33.73-12,50.59-2.8,20.7-2,43.07-4.69,62.91-7.53-8.23-4.35-20.38-9.3-29.87-4.32-13.07-14.94-25.53-11.83-40,1.25-8.33,9.55-14.78,6.75-23.72-2.28-6.52-3.92-13.41-7.06-19.47-3.68-4.82-9-9.69-15.22-10.31-7.12.41-9.71,9.33-17.06,9-7.46,1-14.87-.93-22.31-1.19-8.49,9.8-18.36,20.68-17.38,34.59-2.63,21.26-8.73,42.31-7.37,64C26.33,212,11.28,244.54,7.78,279.08c1.85,9.61,8.88,17.16,12.6,26.06,3.26,5.94,10.55,2.11,15.62,1.94,9.49-1.27,21.47-5.77,22.56-16.6,4.22-9.76,8.64-19.43,9.75-30.15,1.87-12.84,3.49-25.7,5.13-38.53-1.54-4.29,4.45-2.27,6.65-2.35,2.18,2,2.3,6.84,4.38,9.5,11.2,23.89,25.71,46,39,68.81,13.44-8.25,29-11.76,43.81-16.84,8-18.37,7.92-39,13.91-57.94,2.95,9.68,6.8,21.21,0,30.32-4.92,6.49-9.64,14.51-7.1,22.93.13,7.47,1.58,16,8.85,19.82,7.41,6,18.76,12.24,27.94,6.34,14.3-10.58,19.12-29.05,24.21-45.19C237,251,237,243.86,238.84,238c6.22-2.55,12.51-4.78,18.58-7.63,5.93-2.3,11.91-4.78,18.3-5.37,1.09,20.34-2.8,41.68,4.12,61.22,2.54,6.59,5.71,12.82,8.38,19.41,13.84-13.27,29.67-25.73,38-43.38,4.24-14.75,7.18-30.45,3.34-45.62-.89-4.69.49-10.2,3.6-13.35.17,8.35,6.7,14.07,12.12,19.47,2,3.31-.32,7.27.75,10.94.48,5.31-1.26,12-7,13.38-4.79,4.39-1.07,11.39-2.78,16.9-.41,12.56,7.94,25.19,20.41,28.13,9.31,4.52,22.76,5.76,29.62-3.5,7.2-8,8.57-19.34,12.06-28.91,7.33,3.95,14.13,9,21.44,13.16,16.3,11.24,33.39,21,52.12,27.47,27.51,11.29,54.14,24.83,81.6,36.28,9.64.76,20.27,2.42,29.38-1,7.58-5.88,1.36-16.87,6.81-23.82-50.39-24.62-94-60.28-140-92.1-6.22-5-14.11-9.09-18.32-16.11-1.28-6.88,7.39-10.38,12.47-12.6,21.74-10.41,43.34-23.2,57.35-43.31,6-5.85,7.91-14.29,7-22.44a53.22,53.22,0,0,0-14.35-35.4c-5.54-8.45-13.22-17.65-24.31-17.25-7.89-3-11.91-14.2-21.53-12.85-17.5-.89-34.3-7.54-51.81-8.25-18.63,2.13-35.64,14.61-43.61,31.62a67.74,67.74,0,0,0-7.35,40.16c.81,16.51,4.44,32.94,3.77,49.47-.29,6.07-4.66,9.92-9.25,12.91-1.22.58.06-4.9-.81-6.91-.46-2.44-5.22-1.34-6.06-4.65-1.63-6.18-.62-12.9-1.87-19.26-2.06-18.64-2.57-37.73-6-56.06-3.33-6-12.33-7.91-13.22-15.34,4.34-10.9-3.16-24-14.56-26-5.46-4.55-13.32-4.07-18.69.38-10,8.48-19.28,17.72-30.93,24.09-7.46,5.52-18.66,10-19.5,20.59-.86,9.22,1.74,18.85-2.35,27.5-6.88,25.25-21.91,46.88-37.08,67.86-3.63,7.41-2.17,1.79-1.13-3.31C192.4,167,193.09,139,196,111.28c.05-9.9,3.93-20.38-1.22-29.58-4.39-11.24-8.93-23.71-18.65-31.28a7,7,0,0,0-2.66-.22ZM658.28,65.36c-8.46,2.31-15.14,8.7-23,12.5-9.66,6-15,16.88-16.35,28-3.32,18.44-5.62,37.22-13.62,54.33-5.62,13.28-8.82,27.37-13.47,40.93-4,8.29-7.32,18.06-14.65,24.13-2-.16-2.41-4.45-3.5-6C571,208.85,571.3,197.72,570.5,187c-.25-21.93,5.12-43.4,7.34-65-2.1-12.48-15.38-19-18.12-31.22-2.84-6.73-9.6-12.33-17.25-11.22-6.44-1.25-14,1.43-16.09,8.07a115.53,115.53,0,0,0-16.75,40c.24,40.69,1.06,81.57,6.09,122a40.64,40.64,0,0,0,19.72,28.81c8.64,5.32,17.54,10.57,25.22,17,8,3.69,16.35-2.83,19.65-9.84,2-3.54,8.53-7.23,10.94-1.94,7.42,10,19.19,17.48,31.84,17.94,13.24-1.95,22.73-13,30.85-22.66a13,13,0,0,0,.25-16.75c-4.08-10.76-1.39-22.57-2.94-33.69,2.22-11.89,9.31-22.33,10.47-34.5,6-25.32,16.47-49.9,16.55-76.37.11-.75.51,5.13,1.19,7.32.88,8,6.09,16.08,14.57,17.27,8.22,2.1,16.68.21,24.81-.66,1.09,37.93-4.59,75.62-5.3,113.5-.24,13.57-4,29.64,5.9,40.85,6.64,8.38,19.4,13.63,29.09,7.15,12.07-7.77,17.13-22.47,20.83-35.6,2.67-21.07,4.68-42.33,6.72-63.52-1.48-10.08,8.37-16.53,8.26-26.31,2.18-13.46.35-27.78,1.47-40.91,10.38,0,23.84-3.5,26.75-14.91,2.22-9,2-18.74-2-27.28-3.24-5.7-.88-15.94-8.68-18-16.17-4.64-33.5-3.44-50.09-1.9a150.72,150.72,0,0,1-42.1.9c-8.11-.87-15.22,4.14-18.8,11.15-4.34,8.25-11.71,15.56-12.48,25.2-.22-10.87,0-22.24-3.22-32.57-3.52-6.45-8.28-14.73-16.91-13.87Zm244.38,19c-10.24.11-19.88,9-30.07,4.15-12.92-3.3-28.5-1.9-38.62,7.35-5.93,7.49-9.18,16.73-13.25,25.31-4.48,12.3-5.13,26.22-13.46,37-6.39,10.3-13.57,20.28-19,31.08-2.48,6.68-3.47,14.61-.94,21.34,1.4,3.66,5.37,5,8.31,6.6,1.51,14.27-.77,29.16,2.72,43.25,4.2,14.06,14.43,25.67,25,35.37,7.18,4.62,16.75,3.6,25.06,3.61,15.65-1,33.13-1.17,45.29-12.48,14-14.74,32-25.59,44.44-41.65,6.73-11.75,15.95-21.71,23-33.13,5.13-11.16,8-23.78,4.67-35.94-2-19.09-1.61-39.43-10.81-56.84-5.57-9.69-15.24-16.2-21.32-25.57C925.07,86.76,913.21,85.48,902.66,84.33ZM408.72,112.17c7,1.5,16,3.2,20,9.72-2.2,6.35-10.35,8-15.87,10.19-5.93,3.28-7.43.57-6.59-5.34-.15-5-.28-10,0-15l2.38.47Zm488.62,40.66c5.28-.24,6.16,5.8,6.07,9.8,1,12.38,3.73,26.61-4.07,37.42-8.6,13.68-18.22,27.67-31.81,36.56-3.12,1.54-8.75,4.73-10.15-.6-4.46-10.76-2.53-23.09-1.54-34.37a114.37,114.37,0,0,1,16-43.72C878.27,151.08,889.1,154.68,897.34,152.83Z" fill="#fff"/><path d="M22.82,297c-1.7-2.92-4.53-8.29-6.28-11.93l-3.18-6.61,3.75-18.32c2.07-10.07,4-18.66,4.24-19.09a82.19,82.19,0,0,0,2.4-7.94c4.73-17.62,6.42-24.56,7.22-29.67A114,114,0,0,1,33.55,192c1.09-3.81,1.72-11.84,1.72-22,0-11.67.68-19.09,2.52-27.47,1.39-6.31,2.75-13.39,3-15.74C44.07,99.18,43.39,101.6,50.24,93l6.33-7.91,7.11.8a71.14,71.14,0,0,0,14-.06c5.55-.69,7.66-1.64,10.94-4.92l4.06-4.06,5,2.76c5.66,3.15,5.57,3,9.74,16l3.11,9.66-4.27,9.11c-3.85,8.23-4.22,9.93-3.82,17.72.39,7.54,1.25,10.21,6.83,21.22,6,11.74,8.12,18.88,10.61,35,.61,3.91,2.2,6.39,7.36,11.49,3.63,3.58,6.84,6.26,7.14,6,1.09-1.1,3.43-27.87,4.4-50.44.6-13.83,1.77-26.06,2.91-30.43a65.88,65.88,0,0,0,2-12.78c.14-12.43,2.84-20.85,9.56-29.82,11.1-14.84,20.21-26.16,21-26.17,1.81,0,11.08,16.56,14.23,25.44l3.37,9.54L190.26,108c-.87,9.3-2.71,30.59-4.09,47.33s-3.51,34.81-4.73,40.17c-5.63,24.73-7.54,32.7-8,33.49a91.21,91.21,0,0,0-2.26,10.46c-4.33,24.11-7.31,37-8.55,37-2.53,0-27.36,8.38-32.14,10.82l-4.77,2.43L110,263.47c-8.63-14.45-17.69-31.19-20.13-37.22s-5.18-11.41-6.09-12-4.72-1-8.48-1.06l-6.83,0L67.76,219c-5.58,45-7.57,55.81-11.38,61.38a26.37,26.37,0,0,0-3.73,9.5c-.61,4.52-1.25,5.31-6.39,7.92a46.2,46.2,0,0,1-13,3.72l-7.31.82-3.1-5.3Z" fill="url(#b)"/><path d="M201.76,298.74c-8.15-1.41-15.29-6.74-20.71-12.68.33-8.21-4.33-17.84,2-24.61,3.42-6,9.37-11.88,7.47-19.82,2-9-4.78-18.27-4-25.7,3.88-8.23,7.36-16.52,12.95-23.53,5.75-6.48,9.57-13.54,14.14-20.66A125.82,125.82,0,0,0,226,147.34c2.8-8.4,7-17.23,8-26.41,2-8.49-4.05-21.49,5.57-26.19C244.8,91,250,87.67,255.15,84.2c9.27-5.48,16.9-13.36,25.28-20,4.74-5.12,9.56-5.5,15.15-.51,10.59,1.73,13.1,9.95,10,19.3-.38,9.59,10.64,13.1,14.7,19.56.63,12.07,2.38,24,3.05,36,1.16,10.78,2.19,21.36,3.09,32.2-.62,5.87,2.51,9.61,6.7,11.17.72,10.5-5.92,18.55-10.19,27,.45,10.19,3.16,20.16,2.33,30.38-2.51,8-2.74,16.7-5.92,24.55a217.59,217.59,0,0,1-29,31.58c-3.69-8.44-8.34-17.38-8.31-26.8-.37-16.62-.33-33.25-.47-49.87-11.86-.92-22.61,4.69-33.44,8.6-5.65,4.54-17.64,2.88-16.14,13.16a103.47,103.47,0,0,1-7.3,28.95c-2.32,7.6-5.84,15.59-11.06,22-3.32,3.07-6.5,9.09-11.89,7.2Zm73.39-125.93c4.77.22.87-6.65,1.78-9.56.32-4.92-.48-13.94-5.64-5.85-.73,5.37-12.5,17.94-1.56,16C271.55,173.27,273.35,173.06,275.15,172.81Z" fill="url(#c)"/><path d="M552.78,330.32c-11.9-5.81-24.28-11.33-36.37-16.94-14-6.11-28.23-12.93-42.58-18.75-13.36-5.73-27.4-10-38.67-19.4-11.58-6.63-22.63-14.41-34.17-21.11-11.13-4.67-8.64,9.81-12.2,16-3.19,11.31-9.6,23.42-23.36,18.52-8-2.89-16.64-4.3-20.64-13.17-3.86-7-1.47-15.82-2.24-23.66,10.52-3.7,9.66-14.15,9-23.61C355,217.74,343.38,216,341,208.1c-4.49-5.33-.67-14.41,3.36-18.94,12.93-5.5,11.54-21.74,9.86-33.52-1.11-14.48-2.57-28.8-3.68-43.33-.27-10.26,4.39-19.74,8.64-28.63,5.22-10.42,13.59-18.52,24.6-22.2,11.26-7.79,25.5-2.5,37.45.35,10.35,1.89,20.86,3.36,31.46,4.35,5.83,5.29,10.62,12.9,19.33,12.75,10.42.73,13.79,12.36,20.06,18.63,7.88,8.7,10.9,20.82,9.75,32.42.89,5.6-1,9.91-5.32,13.52-6.86,8.05-12.62,17.23-22.24,22.52-10.25,8.88-23,13.75-34.66,20.57-10.16,2.71-20.84,15.24-10.46,24.14,7.61,7.83,17,14,26.08,20.15,17.67,13,35.53,25.29,53.39,37.9,15,11.07,29.82,21.82,46.32,30.66,9.16,5,17.61,10.88,26.93,15.14-2,5.09,1.39,15.53-3.74,16.85-8.42-.34-17.1.75-25.32-1.11ZM404.28,140.61c10.58-2.88,22.46-5,29.36-14.28,7.22-11.76-15.33-18.64-24.42-20.27-6.79-2.21-10.63,2.59-8.9,8.88.09,8.87-.26,17.77.46,26.61l1.21-.28,2.29-.66Z" fill="url(#d)"/><path d="M619.73,295.75c-8.8-3.32-18.41-7.11-23.43-15.6-3.14-7.43-16.19-6.13-19.32.41-5,6.66-10.63,15.32-17.66,5.63-7.38-5.3-15.64-9.14-23.14-14.41-6.76-5.82-13.46-12.32-13.83-21.64-3-10.39-2.85-21.45-4-32.25-1.19-30.74-3.31-61.5-2.75-92.27,2.55-7.18,5.5-14.55,8.3-21.8,2.56-6.07,7.28-11.55,10.16-17.27,2.37-2.34,8.26-.23,11.86-1,7.95.76,8.61,12.38,13.52,17.87,3.79,8.08,15,13.79,12.07,23.74-2.17,12.85-4.92,25.69-5.6,38.69-2.43,15.23-1.69,31,.51,46.15-.65,6.95,4.27,18.23,9.75,20.19a22.69,22.69,0,0,0,14-14.91c6.85-10,10.47-21.65,13.15-33.39,1.53-7.06,4.86-13.18,7.13-20.1,3.51-9.53,6.89-19.16,9.58-28.81,1.67-8.59,2.59-17,4.08-25.64,2.55-9,3.61-20.26,12.93-24.88,5-5.14,12-7,17.66-11.35,8.1-6.3,12.46,4.58,15.92,10.23a196.26,196.26,0,0,1-1.76,62.78c-1.77,8.21-4.79,15.94-7.17,23.9-2.25,8.52-4.38,17.47-6.6,26.22a144.88,144.88,0,0,1-8.19,24.38c-3.78,7.48-.47,16.65-1,24.82.09,8.24,0,17.09,5.38,23.69.25,7.2-9.56,12.61-13.41,18.88-5.6,2.9-11.58,8.51-18.17,7.69Z" fill="url(#e)"/><path d="M733.54,299.31c-6.78-3.81-13.61-10.19-14.62-18.11-.16-14.38.39-28.78,1.54-43.08.15-13.34,1.86-26.61,2-40,2-11.29,1.33-22.91,2.54-34.32.17-9.39.64-18.88-.51-28.22-9.43-1.39-18.9,3.75-28.23.42-10.12.39-10.93-11.63-11.53-19.13-2.51-8.41,4.26-14.73,7.76-21.46,4.26-5.54,7.22-15.6,15.93-13.75,10.36,0,20.77,1.15,31.1.75a164.8,164.8,0,0,1,38.27-3,62,62,0,0,1,23.41,3.14c1.48,5.92,2.72,11.65,4.58,17.42,4.29,6.84,1.58,14.69.47,21.84-2.77,7.5-13.77,7.61-20.65,9.25-6.32-.86-6.66,3.19-6.08,7.9-.17,10.78.46,21.63-.61,32.35-.29,7.1-1.31,13.8-6.38,19.23-3.75,7.07-1.52,16-3.35,23.79-1.44,12.89-3.26,25.76-3.84,38.72-2.16,6.38-.17,14.36-4.27,20.05a49.44,49.44,0,0,1-11.22,21.14c-3.17,4.57-11,6.92-16.28,5Z" fill="url(#f)"/><path d="M833.38,292.94c-3.34-.12-6.53-.56-8.41-3.66-6.59-6.69-13-13.67-17.12-22.08-4.86-6.8-5.64-15.15-5.29-23.55-.54-10,.12-20.24-1.7-30.13-2.72-3.27-10.35-3.3-8.59-9-.16-6.2-.52-12.56,4.09-17.37,6.61-11.16,13.34-22,20.22-33,5.41-7.74,5.29-17.38,8.17-26.23,2.83-9.72,8.66-18.13,12.55-27.26,5.64-5.47,14.43-7.65,22.24-7.43C869.37,91,878,100,887.41,94.29c7.91-2,16.12-6.38,24.14-2.47,8.32,1.44,17.38,2.63,21.59,10.91,5.38,7.94,14.32,13.29,18.17,22.16,2.6,9.13,6,18.14,6.5,27.62.84,9.56,1.1,19.32,2.47,28.9,3.47,8.56-1.33,17-3.2,25.17-2.6,8.17-10.14,13.78-14.45,20.79-4.17,6.33-8.14,12.59-12.28,18.85-15.08,13.21-30.24,26.39-45.27,39.69-7.15,4.77-16.74,5.7-25.31,6.73-8.79.21-17.61,1.34-26.39.3Zm27-47.92c8.67-1.08,16.37-5.91,21.92-12.84,8.31-9.07,16.61-18.38,22.1-29.45,5-5.47,6.73-12.76,5.88-20.3.23-10,.12-20.14-2.85-29.83-3-7-13.19-5.88-19.58-5-8.56-.32-19.88,1-23,10.54-4.58,9.21-10,18-12,28.3-3,9.43-3,19.46-4.63,29.09,1.34,7.77,0,16.53,3.75,23.58,3,1.87,3.62,8.84,8.41,5.88Z" fill="url(#g)"/><path d="M860,332.19H845c-14.78,17.46-41.61,58.64-41.61,58.64l16.61.36,21-31,18,13,14-12c-5-6-14-12-25-14Zm-152,2-9,13H669l-7,10h24c4,0,4.41,3.46,3,5-7.54,8.27-18,20-38,20l5,9c17,0,31.89-12.7,39.17-19.46A87.27,87.27,0,0,0,707,358.19h27l8-11H717l9-13Zm72,1c-8.41,18.46-36,51-36,51l8,5c17-3,47-20,59-30l-6-9s-24.43,19-33,19l23-36Zm-5,1H760c-2,8-30,45-47,49l8,6C737.43,384.1,767.59,353,775,336.19Zm-156,16-7,12h34l8-12Zm272,0-7,12h36l7-12Z" fill="red"/></svg>